<svg width="20" height="20" viewBox="0 0 20 20" fill="none" xmlns="http://www.w3.org/2000/svg">
<path d="M2 18C1.45 18 0.979002 17.804 0.587002 17.412C0.195002 17.02 -0.000664969 16.5493 1.69779e-06 16V4C1.69779e-06 3.45 0.196002 2.979 0.588002 2.587C0.980002 2.195 1.45067 1.99934 2 2H18C18.55 2 19.021 2.196 19.413 2.588C19.805 2.98 20.0007 3.45067 20 4V16C20 16.55 19.804 17.021 19.412 17.413C19.02 17.805 18.5493 18.0007 18 18H2ZM10 11L2 6V16H18V6L10 11ZM10 9L18 4H2L10 9ZM2 6V4V16V6Z" fill="#555C60"/>
</svg>
