<svg width="31" height="30" viewBox="0 0 31 30" fill="none" xmlns="http://www.w3.org/2000/svg">
<g clip-path="url(#clip0_332_15071)">
<path d="M10.9508 0.986424C7.95335 2.02627 5.36834 3.99994 3.57548 6.61752C1.78262 9.23511 0.876419 12.3586 0.989976 15.5293C1.10353 18.7 2.23087 21.7507 4.20639 24.2333C6.18191 26.7159 8.90148 28.4996 11.9657 29.3224C14.4499 29.9634 17.0526 29.9915 19.55 29.4044C21.8125 28.8962 23.9042 27.8092 25.6203 26.2497C27.4065 24.5771 28.7029 22.4493 29.3703 20.095C30.0955 17.5348 30.2246 14.8425 29.7477 12.2247H15.7977V18.0114H23.8766C23.7151 18.9344 23.3691 19.8152 22.8593 20.6013C22.3495 21.3874 21.6863 22.0626 20.9094 22.5864C19.923 23.2392 18.8109 23.6783 17.6446 23.8755C16.4749 24.093 15.2752 24.093 14.1055 23.8755C12.9199 23.6306 11.7984 23.1413 10.8125 22.4388C9.22851 21.3175 8.03912 19.7245 7.4141 17.8872C6.77868 16.0154 6.77868 13.9863 7.4141 12.1145C7.859 10.8026 8.59449 9.60799 9.56566 8.62002C10.677 7.46864 12.0841 6.64564 13.6324 6.24129C15.1808 5.83694 16.8106 5.86689 18.343 6.32783C19.5402 6.69515 20.6349 7.33723 21.5399 8.20283C22.4508 7.29658 23.3602 6.38799 24.268 5.47705C24.7368 4.98721 25.2477 4.5208 25.7094 4.01924C24.3278 2.73373 22.7063 1.73339 20.9375 1.07549C17.7165 -0.0940681 14.1922 -0.125499 10.9508 0.986424Z" fill="white"/>
<path d="M10.9509 0.986587C14.192 -0.126092 17.7163 -0.0954888 20.9376 1.07331C22.7066 1.73568 24.3275 2.74084 25.7071 4.03112C25.2384 4.53268 24.7438 5.00143 24.2657 5.48893C23.3563 6.39674 22.4478 7.30143 21.5399 8.20299C20.635 7.3374 19.5403 6.69531 18.3431 6.32799C16.8111 5.86543 15.1814 5.83376 13.6326 6.23645C12.0839 6.63914 10.676 7.46064 9.56338 8.61081C8.59221 9.59878 7.85672 10.7933 7.41182 12.1053L2.55322 8.34362C4.2923 4.89493 7.30342 2.25696 10.9509 0.986587Z" fill="#E33629"/>
<path d="M1.26425 12.0703C1.5252 10.776 1.95876 9.52264 2.55331 8.34375L7.41191 12.1148C6.77649 13.9866 6.77649 16.0157 7.41191 17.8875C5.79316 19.1375 4.17363 20.3938 2.55331 21.6563C1.06539 18.6945 0.611593 15.3199 1.26425 12.0703Z" fill="#F8BD00"/>
<path d="M15.7974 12.2227H29.7474C30.2244 14.8405 30.0953 17.5328 29.3701 20.093C28.7027 22.4472 27.4062 24.575 25.6201 26.2477C24.0521 25.0242 22.4771 23.8102 20.9091 22.5867C21.6865 22.0624 22.35 21.3865 22.8599 20.5995C23.3697 19.8126 23.7155 18.9308 23.8763 18.007H15.7974C15.7951 16.0805 15.7974 14.1516 15.7974 12.2227Z" fill="#587DBD"/>
<path d="M2.55078 21.6564C4.17109 20.4064 5.79062 19.1502 7.40937 17.8877C8.03564 19.7257 9.22673 21.3187 10.8125 22.4393C11.8014 23.1386 12.9254 23.6239 14.1125 23.8643C15.2822 24.0818 16.4819 24.0818 17.6516 23.8643C18.8179 23.6671 19.93 23.228 20.9164 22.5752C22.4844 23.7986 24.0594 25.0127 25.6273 26.2361C23.9115 27.7964 21.8197 28.8843 19.557 29.3932C17.0596 29.9803 14.4569 29.9521 11.9727 29.3111C10.0079 28.7865 8.17268 27.8617 6.58203 26.5947C4.89858 25.2579 3.52352 23.5734 2.55078 21.6564Z" fill="#319F43"/>
</g>
<defs>
<clipPath id="clip0_332_15071">
<rect width="30" height="30" fill="white" transform="translate(0.5)"/>
</clipPath>
</defs>
</svg>
