<svg width="29" height="32" viewBox="0 0 29 32" fill="none" xmlns="http://www.w3.org/2000/svg">
<path d="M21.3534 0.0160139C21.2802 -0.0599857 18.6417 0.0460138 16.3457 2.36C14.0497 4.67199 14.403 7.32398 14.4546 7.39198C14.5063 7.45998 17.7285 7.56597 19.7854 4.87599C21.8424 2.186 21.4267 0.0940135 21.3534 0.0160139ZM28.4913 23.4819C28.3879 23.2899 23.4836 21.0139 23.9402 16.6379C24.3968 12.26 27.5479 11.06 27.5974 10.93C27.647 10.8 26.3116 9.34997 24.8965 8.61597C23.8575 8.09848 22.7076 7.80199 21.53 7.74797C21.2974 7.74197 20.4897 7.55797 18.8291 7.97997C17.735 8.25797 15.2688 9.15797 14.5903 9.19397C13.9097 9.22997 11.8851 8.14997 9.70755 7.86397C8.31401 7.61397 6.83647 8.12597 5.77893 8.51997C4.72354 8.91197 2.71615 10.028 1.31184 12.9939C-0.0924689 15.9579 0.641994 20.6539 1.16753 22.1139C1.69307 23.5719 2.51369 25.9619 3.90939 27.7059C5.15 29.6739 6.79555 31.0399 7.48263 31.5038C8.1697 31.9678 10.1082 32.2758 11.4522 31.6378C12.5334 31.0219 14.4848 30.6679 15.2559 30.6939C16.0248 30.7199 17.5411 31.0019 19.094 31.7718C20.3239 32.1658 21.487 32.0018 22.6522 31.5618C23.8174 31.1199 25.5039 29.4439 27.4725 26.0459C28.2199 24.4659 28.5602 23.6119 28.4913 23.4819Z" fill="black"/>
<path d="M21.3534 0.0160139C21.2802 -0.0599857 18.6417 0.0460138 16.3457 2.36C14.0497 4.67199 14.403 7.32398 14.4546 7.39198C14.5063 7.45998 17.7285 7.56597 19.7854 4.87599C21.8424 2.186 21.4267 0.0940135 21.3534 0.0160139ZM28.4913 23.4819C28.3879 23.2899 23.4836 21.0139 23.9402 16.6379C24.3968 12.26 27.5479 11.06 27.5974 10.93C27.647 10.8 26.3116 9.34997 24.8965 8.61597C23.8575 8.09848 22.7076 7.80199 21.53 7.74797C21.2974 7.74197 20.4897 7.55797 18.8291 7.97997C17.735 8.25797 15.2688 9.15797 14.5903 9.19397C13.9097 9.22997 11.8851 8.14997 9.70755 7.86397C8.31401 7.61397 6.83647 8.12597 5.77893 8.51997C4.72354 8.91197 2.71615 10.028 1.31184 12.9939C-0.0924689 15.9579 0.641994 20.6539 1.16753 22.1139C1.69307 23.5719 2.51369 25.9619 3.90939 27.7059C5.15 29.6739 6.79555 31.0399 7.48263 31.5038C8.1697 31.9678 10.1082 32.2758 11.4522 31.6378C12.5334 31.0219 14.4848 30.6679 15.2559 30.6939C16.0248 30.7199 17.5411 31.0019 19.094 31.7718C20.3239 32.1658 21.487 32.0018 22.6522 31.5618C23.8174 31.1199 25.5039 29.4439 27.4725 26.0459C28.2199 24.4659 28.5602 23.6119 28.4913 23.4819Z" fill="black"/>
</svg>
