<svg width="20" height="21" viewBox="0 0 20 21" fill="none" xmlns="http://www.w3.org/2000/svg">
<path d="M18.3332 10.5003C18.3332 15.1028 14.6023 18.8337 9.99984 18.8337C5.39734 18.8337 1.6665 15.1028 1.6665 10.5003C1.6665 5.89783 5.39734 2.16699 9.99984 2.16699C14.6023 2.16699 18.3332 5.89783 18.3332 10.5003Z" stroke="black" stroke-width="1.5" stroke-linecap="round" stroke-linejoin="round"/>
<path d="M9.99967 11.3333C10.4417 11.3333 10.8656 11.1577 11.1782 10.8452C11.4907 10.5326 11.6663 10.1087 11.6663 9.66667C11.6663 9.22464 11.4907 8.80072 11.1782 8.48816C10.8656 8.1756 10.4417 8 9.99967 8C9.55765 8 9.13372 8.1756 8.82116 8.48816C8.5086 8.80072 8.33301 9.22464 8.33301 9.66667C8.33301 10.1087 8.5086 10.5326 8.82116 10.8452C9.13372 11.1577 9.55765 11.3333 9.99967 11.3333ZM9.99967 11.3333V13.8333" stroke="black" stroke-width="1.5" stroke-linecap="round" stroke-linejoin="round"/>
</svg>
