<svg width="32" height="32" viewBox="0 0 32 32" fill="none" xmlns="http://www.w3.org/2000/svg">
<path d="M17.3332 11.9993C17.3332 12.353 17.1927 12.6921 16.9426 12.9422C16.6926 13.1922 16.3535 13.3327 15.9998 13.3327C15.6462 13.3327 15.3071 13.1922 15.057 12.9422C14.807 12.6921 14.6665 12.353 14.6665 11.9993C14.6665 11.6457 14.807 11.3066 15.057 11.0565C15.3071 10.8065 15.6462 10.666 15.9998 10.666C16.3535 10.666 16.6926 10.8065 16.9426 11.0565C17.1927 11.3066 17.3332 11.6457 17.3332 11.9993Z" stroke="#48e5c2" stroke-width="2.66667" stroke-linejoin="round"/>
<path d="M23.3332 12.6663C23.3332 16.717 20.6665 21.333 15.9998 26.6663C11.3332 21.333 8.6665 16.717 8.6665 12.6663C8.6665 10.7214 9.43912 8.85616 10.8144 7.48089C12.1897 6.10562 14.0549 5.33301 15.9998 5.33301C17.9448 5.33301 19.81 6.10562 21.1853 7.48089C22.5606 8.85616 23.3332 10.7214 23.3332 12.6663Z" stroke="#48e5c2" stroke-width="2" stroke-linejoin="round"/>
</svg>
