<svg width="56" height="56" viewBox="0 0 56 56" fill="none" xmlns="http://www.w3.org/2000/svg">
<rect width="56" height="56" rx="28" fill="#333333" fill-opacity="0.2"/>
<path d="M20.329 28.7259L28.286 36.7211C28.4284 36.8642 28.503 37.0327 28.5098 37.2268C28.5157 37.4208 28.4377 37.5987 28.2758 37.7604C28.1158 37.9172 27.9437 37.997 27.7593 38C27.576 38.0019 27.4034 37.9221 27.2415 37.7604L18.3467 28.8229C18.219 28.6935 18.1292 28.5622 18.0775 28.4289C18.0258 28.2956 18 28.1496 18 27.9909C18 27.8321 18.0258 27.6861 18.0775 27.5528C18.1292 27.4195 18.219 27.2887 18.3467 27.1603L27.2415 18.2214C27.378 18.0842 27.5443 18.0107 27.7403 18.0009C27.9373 17.9911 28.1163 18.0646 28.2772 18.2214C28.4382 18.3831 28.5186 18.5575 28.5186 18.7447C28.5186 18.9328 28.4382 19.1078 28.2772 19.2695L20.3276 27.2559H37.2685C37.4772 27.2559 37.6513 27.3259 37.7908 27.4661C37.9303 27.6062 38 27.7811 38 27.9909C38 28.2006 37.9303 28.3755 37.7908 28.5156C37.6513 28.6558 37.4772 28.7259 37.2685 28.7259H20.329Z" fill="black"/>
</svg>
